<?xml version="1.0" encoding="UTF-8" standalone="no"?>
<svg
   xmlns:dc="http://purl.org/dc/elements/1.1/"
   xmlns:cc="http://creativecommons.org/ns#"
   xmlns:rdf="http://www.w3.org/1999/02/22-rdf-syntax-ns#"
   xmlns:svg="http://www.w3.org/2000/svg"
   xmlns="http://www.w3.org/2000/svg"
   viewBox="0 0 490.95999 120.94667"
   height="120.94667"
   width="490.95999"
   xml:space="preserve"
   id="svg2"
   version="1.1"><metadata
     id="metadata8"><rdf:RDF><cc:Work
         rdf:about=""><dc:format>image/svg+xml</dc:format><dc:type
           rdf:resource="http://purl.org/dc/dcmitype/StillImage" /></cc:Work></rdf:RDF></metadata><defs
     id="defs6" /><g
     transform="matrix(1.3333333,0,0,-1.3333333,0,120.94667)"
     id="g10"><g
       transform="scale(0.1)"
       id="g12"><path
         id="path14"
         style="fill:#88b5e4;fill-opacity:1;fill-rule:nonzero;stroke:none"
         d="m 2977.45,412.031 h 20.53 c 19.61,0 30.17,-9.961 30.17,-29.875 0,-23.23 -11.77,-32.285 -32.59,-32.285 h -18.11 z M 2934,228.563 h 43.45 v 91.132 h 23.23 c 17.5,0 25.05,-10.261 25.67,-27.156 l 1.2,-41.348 c 0.29,-8.437 1.2,-16.582 5.43,-22.628 h 47.07 v 1.808 c -8.15,4.238 -9.36,15.996 -9.66,38.621 -0.6,45.571 -5.13,61.875 -34.7,65.793 v 0.598 c 24.45,5.137 35.91,24.441 35.91,53.113 0,36.817 -21.73,55.527 -57.33,55.527 H 2934 v -215.46" /><path
         id="path16"
         style="fill:#88b5e4;fill-opacity:1;fill-rule:nonzero;stroke:none"
         d="M 2293.37,444.02 V 293.75 c 0,-57.637 33.5,-69.414 68.8,-69.414 35.3,0 68.81,14.48 68.81,69.414 v 150.27 h -43.46 V 293.75 c 0,-21.426 -5.13,-37.422 -25.35,-37.422 -20.22,0 -25.34,15.996 -25.34,37.422 v 150.27 h -43.46" /><path
         id="path18"
         style="fill:#88b5e4;fill-opacity:1;fill-rule:nonzero;stroke:none"
         d="M 2441.61,444.02 V 228.574 h 39.84 v 150.867 h 0.59 l 53.11,-150.867 h 49.49 V 444.02 h -39.83 V 296.465 h -0.6 L 2491.7,444.02 h -50.09" /><path
         id="path20"
         style="fill:#88b5e4;fill-opacity:1;fill-rule:nonzero;stroke:none"
         d="m 2639.26,444.02 h -43.45 V 228.574 h 43.45 V 444.02" /><path
         id="path22"
         style="fill:#88b5e4;fill-opacity:1;fill-rule:nonzero;stroke:none"
         d="m 2642.25,444.02 49.48,-215.446 h 55.83 l 49.47,215.446 h -44.95 L 2720.1,284.688 h -0.9 l -30.49,159.332 h -46.46" /><path
         id="path24"
         style="fill:#88b5e4;fill-opacity:1;fill-rule:nonzero;stroke:none"
         d="M 2800.91,444.02 V 228.574 h 123.43 v 35.598 h -79.98 v 57.937 h 72.43 v 35.618 h -72.43 v 50.679 h 76.95 v 35.614 h -120.4" /><path
         id="path26"
         style="fill:#88b5e4;fill-opacity:1;fill-rule:nonzero;stroke:none"
         d="m 3075.2,295.859 v -8.75 c 0,-39.843 19.32,-62.773 68.51,-62.773 47.07,0 74.82,20.519 74.82,66.094 0,26.25 -8.44,42.84 -41.03,57.031 l -33.5,14.473 c -18.4,7.851 -22.32,15.996 -22.32,29.277 0,12.668 5.13,25.051 24.74,25.051 16.59,0 23.54,-11.77 23.54,-31.992 h 41.64 v 6.043 c 0,41.335 -28.07,57.925 -66.69,57.925 -41.04,0 -66.68,-21.422 -66.68,-63.355 0,-35.918 17.8,-51.914 56.42,-65.188 28.67,-9.961 38.63,-17.195 38.63,-36.812 0,-18.11 -12.68,-26.555 -25.96,-26.555 -22.94,0 -28.66,12.969 -28.66,33.192 v 6.339 h -43.46" /><path
         id="path28"
         style="fill:#88b5e4;fill-opacity:1;fill-rule:nonzero;stroke:none"
         d="m 3267.67,444.02 h -43.45 V 228.574 h 43.45 V 444.02" /><path
         id="path30"
         style="fill:#88b5e4;fill-opacity:1;fill-rule:nonzero;stroke:none"
         d="m 3493.37,444.02 -30.19,-83.278 h -0.59 l -28.36,83.278 h -160.86 v -35.614 h 47.07 V 228.574 h 43.46 v 179.832 h 36.65 l 40.6,-95.047 v -84.785 h 43.47 v 84.785 l 55.83,130.661 h -47.08" /><path
         id="path32"
         style="fill:#2f56ae;fill-opacity:1;fill-rule:nonzero;stroke:none"
         d="m 1911.66,463.617 h -72 v 216.406 h 118.06 c 32.03,0.012 59.64,-20.714 68.65,-48.199 8.34,-25.457 1.21,-53.117 -17.61,-72.808 2.5,-6.782 4.94,-12.09 7.26,-18.18 5.23,-12.051 10.01,-24.098 15.24,-36.004 l 17.13,-41.215 h -0.44 -72.57 c 0,-0.043 -0.59,1.738 -1.16,2.465 -2.9,6.383 -5.52,13.215 -8.42,19.594 l -17.56,41.66 c -6.97,16.84 -13.94,32.754 -20.9,49.578 8.69,0.242 15.19,-1.387 23.58,2.473 5.9,2.898 14.84,10.109 15.07,23.937 -0.23,6.852 -2.13,12.043 -6.66,17.442 -4.55,5.019 -11.13,8.742 -19.7,8.859 0,0 -27.98,0.008 -27.97,0 V 463.617" /><path
         id="path34"
         style="fill:#2f56ae;fill-opacity:1;fill-rule:nonzero;stroke:none"
         d="m 2663.72,680.027 v -216.41 h -72 v 88.242 h -6.72 -43.12 -0.57 v -88.242 c -13.07,0 -27.14,0.145 -40.21,0 h -31.79 v 166.332 h -50.36 v -5.222 -15.668 -71.27 -74.172 h -0.58 -71.43 v 89.703 3.477 73.152 h -50.79 V 551.43 463.617 h -74.17 c -12.92,31.203 -26.55,62.699 -39.19,93.762 -1.44,6.531 -2.9,13.07 -4.78,19.453 V 463.617 h -74.33 c -14.73,34.254 -28.88,67.824 -43.56,102.582 -5.09,12.039 -9.26,21.836 -14.52,34.36 l -0.73,1.636 -11.43,26.852 -16.38,38.351 c -1.44,4.348 -3.76,8.282 -5.22,12.629 h 74.15 c 15.24,-37.007 30.61,-73.586 46.59,-110.015 l 0.44,-0.871 c -0.59,4.211 -1.91,9.582 -2.62,13.636 v 64.59 c 0.14,10.313 0,22.071 0,32.66 h 74.31 c 0.93,-2.355 1.45,-3.632 2.17,-5.519 8.72,-20.461 17,-40.778 25.71,-61.102 l 19.44,-44.265 c -0.44,4.648 -1.45,9.14 -2.03,13.636 v 97.25 h 5.95 50.51 182.89 51.96 v -13.5 -64.589 h 3.48 46.93 v 78.089 h 37.55 34.45" /><path
         id="path36"
         style="fill:#88b5e4;fill-opacity:1;fill-rule:nonzero;stroke:none"
         d="m 2920.76,680.051 h -53.95 l -45.17,-170.594 -45.16,170.594 h -53.96 l -57.29,-216.434 h 45.47 l 10,45.774 h 57.61 l 9.99,-45.774 h 66.68 l 10,45.774 h 57.6 l 10,-45.774 h 45.48 z m -192.47,-134.891 20.91,97.301 h 0.6 l 20.92,-97.301 z m 144.27,0 20.93,97.301 h 0.59 L 2915,545.16 h -42.44" /><path
         id="path38"
         style="fill:#88b5e4;fill-opacity:1;fill-rule:nonzero;stroke:none"
         d="m 3108.05,606.199 c 0,31.379 -4.52,76.949 -66.69,76.949 -65.17,0 -73.33,-46.468 -73.33,-111.949 0,-65.48 8.16,-111.953 73.33,-111.953 57.03,0 68.49,40.133 68.49,86.606 h -43.44 c 0,-46.473 -11.47,-54.622 -27.16,-54.622 -18.71,0 -27.77,11.766 -27.77,76.95 0,60.953 5.14,82.98 27.16,82.98 19.62,0 25.96,-13.582 25.96,-44.961 h 43.45" /><path
         id="path40"
         style="fill:#88b5e4;fill-opacity:1;fill-rule:nonzero;stroke:none"
         d="m 3118.44,463.617 h 43.64 v 96.078 H 3213 v -96.078 h 43.65 V 680.023 H 3213 v -82.75 h -50.92 v 82.75 h -43.64 V 463.617" /><path
         id="path42"
         style="fill:#88b5e4;fill-opacity:1;fill-rule:nonzero;stroke:none"
         d="M 3266.11,680.066 V 463.617 h 124.01 v 35.77 h -80.34 v 58.211 h 72.75 v 35.769 h -72.75 v 50.93 h 77.29 v 35.769 h -120.96" /><path
         id="path44"
         style="fill:#88b5e4;fill-opacity:1;fill-rule:nonzero;stroke:none"
         d="M 3396.59,680.023 V 463.617 h 40.01 v 151.547 h 0.6 l 53.35,-151.547 h 49.71 v 216.406 h -40.01 V 531.816 h -0.61 l -52.74,148.207 h -50.31" /><path
         id="path46"
         style="fill:#2f56ae;fill-opacity:1;fill-rule:nonzero;stroke:none"
         d="m 1692.93,226.77 h 10 v 453.55 h -10 V 226.77" /><path
         id="path48"
         style="fill:#d01e27;fill-opacity:1;fill-rule:nonzero;stroke:none"
         d="M 185.543,443.902 H 141.73 v -217.23 h 43.813 z m 29.598,0 v -217.23 h 40.156 v 152.117 h 0.609 l 53.551,-152.117 h 49.902 v 217.23 h -40.16 V 295.117 h -0.609 l -52.942,148.785 z m 172.929,0 v -217.23 h 40.16 v 152.117 h 0.61 l 53.547,-152.117 h 49.902 v 217.23 h -40.16 V 295.117 H 491.52 L 438.578,443.902 Z M 558.84,289.805 c 1.531,-13.907 4.871,-25.821 10.043,-35.75 5.176,-9.946 12.625,-17.707 22.367,-23.285 9.73,-5.575 22.82,-8.36 39.238,-8.36 16.43,0 29.524,2.785 39.254,8.36 9.738,5.578 17.188,13.339 22.36,23.285 5.179,9.929 8.519,21.843 10.039,35.75 1.531,13.886 2.289,29.043 2.289,45.476 0,16.43 -0.758,31.582 -2.289,45.489 -1.52,13.886 -4.86,25.812 -10.039,35.753 -5.172,9.922 -12.622,17.684 -22.36,23.262 -9.73,5.586 -22.824,8.375 -39.254,8.375 -16.418,0 -29.508,-2.789 -39.238,-8.375 -9.742,-5.578 -17.191,-13.34 -22.367,-23.262 -5.172,-9.941 -8.512,-21.867 -10.043,-35.753 -1.52,-13.907 -2.281,-29.059 -2.281,-45.489 0,-16.433 0.761,-31.59 2.281,-45.476 m 42.601,82.597 c 0.707,10.137 2.129,18.45 4.258,24.953 2.133,6.485 5.168,11.2 9.129,14.149 3.949,2.93 9.172,4.402 15.66,4.402 6.492,0 11.723,-1.472 15.672,-4.402 3.961,-2.949 7,-7.664 9.129,-14.149 2.133,-6.503 3.551,-14.816 4.262,-24.953 0.707,-10.144 1.07,-22.507 1.07,-37.121 0,-14.597 -0.363,-27.027 -1.07,-37.273 -0.711,-10.235 -2.129,-18.555 -4.262,-24.949 -2.129,-6.387 -5.168,-11.047 -9.129,-13.989 -3.949,-2.937 -9.18,-4.414 -15.672,-4.414 -6.488,0 -11.711,1.477 -15.66,4.414 -3.961,2.942 -6.996,7.602 -9.129,13.989 -2.129,6.394 -3.551,14.714 -4.258,24.949 -0.711,10.246 -1.07,22.676 -1.07,37.273 0,14.614 0.359,26.977 1.07,37.121 m 110.676,71.5 49.903,-217.23 h 56.289 l 49.89,217.23 h -45.328 l -32.25,-160.64 h -0.91 l -30.731,160.64 z m 228.403,-37.73 h 0.609 l 20.988,-97.664 h -42.586 z m -84.282,-179.5 h 45.641 l 10.039,45.933 h 57.812 l 10.04,-45.933 h 45.64 l -57.512,217.23 H 913.75 Z m 156.242,217.23 v -35.906 h 47.46 V 226.672 h 43.81 v 181.324 h 47.46 v 35.906 z m 202.17,0 h -43.81 v -217.23 h 43.81 z m 27.62,-154.097 c 1.52,-13.907 4.87,-25.821 10.04,-35.75 5.17,-9.946 12.63,-17.707 22.36,-23.285 9.74,-5.575 22.82,-8.36 39.25,-8.36 16.43,0 29.51,2.785 39.25,8.36 9.73,5.578 17.19,13.339 22.36,23.285 5.17,9.929 8.52,21.843 10.04,35.75 1.52,13.886 2.28,29.043 2.28,45.476 0,16.43 -0.76,31.582 -2.28,45.489 -1.52,13.886 -4.87,25.812 -10.04,35.753 -5.17,9.922 -12.63,17.684 -22.36,23.262 -9.74,5.586 -22.82,8.375 -39.25,8.375 -16.43,0 -29.51,-2.789 -39.25,-8.375 -9.73,-5.578 -17.19,-13.34 -22.36,-23.262 -5.17,-9.941 -8.52,-21.867 -10.04,-35.753 -1.52,-13.907 -2.28,-29.059 -2.28,-45.489 0,-16.433 0.76,-31.59 2.28,-45.476 m 42.59,82.597 c 0.71,10.137 2.13,18.45 4.26,24.953 2.13,6.485 5.18,11.2 9.13,14.149 3.96,2.93 9.18,4.402 15.67,4.402 6.49,0 11.71,-1.472 15.67,-4.402 3.95,-2.949 7,-7.664 9.13,-14.149 2.13,-6.503 3.54,-14.816 4.26,-24.953 0.7,-10.144 1.06,-22.507 1.06,-37.121 0,-14.597 -0.36,-27.027 -1.06,-37.273 -0.72,-10.235 -2.13,-18.555 -4.26,-24.949 -2.13,-6.387 -5.18,-11.047 -9.13,-13.989 -3.96,-2.937 -9.18,-4.414 -15.67,-4.414 -6.49,0 -11.71,1.477 -15.67,4.414 -3.95,2.942 -7,7.602 -9.13,13.989 -2.13,6.394 -3.55,14.714 -4.26,24.949 -0.71,10.246 -1.06,22.676 -1.06,37.273 0,14.614 0.35,26.977 1.06,37.121 m 127.12,71.5 v -217.23 h 40.16 v 152.117 h 0.61 l 53.55,-152.117 h 49.89 v 217.23 h -40.16 V 295.117 h -0.61 l -52.94,148.785 h -50.5" /></g></g></svg>