<svg xmlns="http://www.w3.org/2000/svg" xmlns:xlink="http://www.w3.org/1999/xlink" width="125" height="143" viewBox="0 0 125 143"><defs><clipPath id="clip-Background_2"><rect width="125" height="143"></rect></clipPath></defs><g id="Background_2" data-name="Background &#x2013; 2" clip-path="url(#clip-Background_2)"><path id="Rechteck_1" data-name="Rechteck 1" d="M30.5,0h20A30.5,30.5,0,0,1,81,30.5V60.551a.449.449,0,0,1-.449.449H30.5A30.5,30.5,0,0,1,0,30.5v0A30.5,30.5,0,0,1,30.5,0Z" transform="translate(24.4 63.313)" fill="#8ea7ed"></path><path id="Pfad_1" data-name="Pfad 1" d="M30.5,0h20a30.5,30.5,0,0,1,0,61H.449A.449.449,0,0,1,0,60.551V30.5A30.5,30.5,0,0,1,30.5,0Z" transform="translate(14.4 28.313)" fill="rgba(2,57,215,0.69)"></path></g></svg>