<svg width="549" height="536" viewBox="0 0 549 536" fill="none" xmlns="http://www.w3.org/2000/svg">
<path d="M536.917 262.056L536.977 262.406L537.328 262.465C538.706 262.694 540.017 263.222 541.169 264.012C542.321 264.802 543.286 265.836 543.995 267.039C544.705 268.242 545.142 269.587 545.275 270.978C545.409 272.368 545.237 273.771 544.77 275.087L544.785 275.093L544.769 275.09C543.996 277.312 542.435 279.174 540.382 280.322C538.328 281.471 535.925 281.826 533.627 281.321C531.329 280.816 529.296 279.486 527.914 277.582C526.532 275.678 525.896 273.334 526.127 270.992L526.135 270.906L526.114 270.823L518.381 239.604L531.044 227.748L536.917 262.056Z" fill="white" stroke="black"/>
<path d="M496.411 138.073C498.37 137.284 500.496 137.002 502.593 137.255H502.594C505.02 137.547 507.308 138.543 509.175 140.12C510.925 141.599 512.233 143.528 512.96 145.694L513.098 146.131L532.195 210.687L537.585 255.747C537.631 256.148 537.556 256.554 537.368 256.912C537.204 257.225 536.961 257.489 536.663 257.678L536.532 257.753C536.398 257.824 536.255 257.88 536.107 257.919H536.106L522.799 261.411C522.292 261.541 521.755 261.469 521.301 261.21C520.846 260.95 520.51 260.522 520.365 260.019L496.452 175.291L496.449 175.279L496.445 175.268L489.22 153.653C488.55 151.651 488.399 149.511 488.778 147.434C489.158 145.356 490.057 143.408 491.392 141.771C492.726 140.135 494.453 138.863 496.411 138.073Z" fill="#8EA7ED" stroke="black"/>
<path d="M487.598 73.8447C500.886 73.845 511.658 84.6171 511.659 97.9053C511.659 111.194 500.886 121.967 487.598 121.967C474.31 121.967 463.537 111.194 463.537 97.9053C463.537 84.617 474.31 73.8447 487.598 73.8447Z" fill="white" stroke="black"/>
<path d="M428.145 388.914L414.944 433.279L404.097 430.053L411.823 384.059L428.145 388.914Z" fill="white" stroke="black"/>
<path d="M390.352 424.014C392.296 423.812 394.261 423.993 396.135 424.551L396.136 424.552L418.797 431.294L414.553 445.563L377.622 434.575C378.179 432.701 379.1 430.955 380.332 429.438C381.564 427.92 383.084 426.66 384.803 425.729C386.522 424.799 388.407 424.216 390.352 424.014Z" fill="#26272B" stroke="black"/>
<path d="M537.58 386.512L543.452 432.8H532.202L526.492 386.512H537.58Z" fill="white" stroke="black"/>
<path d="M523.002 429.797H546.646V444.684H507.616L508.116 444.683C508.116 442.728 508.501 440.792 509.249 438.986C509.997 437.18 511.094 435.54 512.476 434.157C513.858 432.775 515.499 431.678 517.305 430.93C519.111 430.182 521.048 429.797 523.002 429.797Z" fill="#26272B" stroke="black"/>
<path d="M497.76 216.535C520.172 261.56 534.394 335.939 547.714 413.689L547.718 413.708L547.723 413.728C547.869 414.302 547.885 414.902 547.771 415.483C547.657 416.065 547.414 416.613 547.062 417.09C546.71 417.566 546.255 417.959 545.733 418.238C545.21 418.518 544.632 418.678 544.04 418.707L530.209 419.378H530.208C529.376 419.421 528.552 419.202 527.851 418.752C527.15 418.302 526.609 417.643 526.302 416.869L526.301 416.868L473.312 284.4C473.169 284.016 472.908 283.687 472.566 283.461C472.263 283.261 471.91 283.15 471.548 283.142L471.417 283.144C471.006 283.147 470.606 283.28 470.274 283.521C469.984 283.733 469.757 284.019 469.619 284.349L469.566 284.486L423.581 416.813C423.307 417.598 422.796 418.277 422.12 418.759C421.443 419.24 420.632 419.5 419.801 419.5H407.493C406.906 419.5 406.326 419.371 405.795 419.122C405.264 418.873 404.795 418.51 404.419 418.06C404.044 417.609 403.772 417.081 403.624 416.514C403.475 415.946 403.452 415.353 403.558 414.776L403.629 414.39L403.269 414.229C403.236 414.215 403.096 414.104 402.953 413.641C402.819 413.208 402.719 412.583 402.661 411.761C402.544 410.121 402.598 407.795 402.809 404.868C403.232 399.02 404.276 390.847 405.783 381.135C408.795 361.715 413.652 336.183 419.068 310.88C424.483 285.576 430.455 260.51 435.695 242.021C438.316 232.773 440.749 225.185 442.834 220.038C443.879 217.46 444.827 215.521 445.653 214.296C446.068 213.68 446.431 213.278 446.733 213.061C447.029 212.847 447.192 212.859 447.286 212.896L447.654 213.041L447.879 212.716L448.043 212.479L497.76 216.535Z" fill="#E7E7E7" stroke="black"/>
<path d="M482.634 130.341C487.801 129.661 493.057 130.321 497.896 132.258C502.734 134.194 506.993 137.342 510.265 141.399L510.268 141.402C513.618 145.484 515.862 150.358 516.785 155.557C517.708 160.756 517.278 166.105 515.537 171.09L515.536 171.091L498.79 219.5L445.791 215.5L455.099 156.307V156.306C456.113 149.745 459.221 143.688 463.96 139.039C468.699 134.39 474.814 131.398 481.393 130.51L481.396 130.509C481.805 130.451 482.218 130.396 482.634 130.341Z" fill="#8EA7ED" stroke="black"/>
<path d="M535.291 126C518.402 133.726 495.488 132.343 469.291 126C472.916 116.07 475.741 106.48 472.537 99.4393C471.243 96.7815 470.512 93.8848 470.391 90.9312C470.27 87.9776 470.761 85.0308 471.833 82.276C474.345 76.2694 478.576 71.1396 483.996 67.5319C489.415 63.9241 495.781 61.9994 502.291 62C511.043 62 519.437 65.4768 525.626 71.6655C531.814 77.8542 535.291 86.2479 535.291 95V126Z" fill="#26272B"/>
<path d="M478.291 64.2461H499.291V90.0706H455.291V87.2461C455.291 81.1461 457.714 75.296 462.028 70.9826C466.341 66.6693 472.191 64.2461 478.291 64.2461Z" fill="#26272B"/>
<path d="M442.887 265.249L442.776 265.587L443.059 265.803C444.169 266.651 445.08 267.732 445.727 268.97C446.374 270.208 446.742 271.573 446.805 272.969C446.868 274.364 446.624 275.757 446.09 277.048C445.557 278.339 444.747 279.497 443.717 280.441L443.714 280.443C441.991 282.044 439.739 282.958 437.387 283.01C435.035 283.062 432.746 282.25 430.953 280.727C429.16 279.204 427.988 277.076 427.659 274.746C427.33 272.417 427.866 270.047 429.167 268.087L429.215 268.016L429.236 267.932L437.034 236.73L453.776 232.19L442.887 265.249Z" fill="white" stroke="black"/>
<path d="M459.039 137.657C460.985 136.837 463.107 136.522 465.207 136.742C467.307 136.962 469.318 137.71 471.052 138.916C473.059 140.311 474.613 142.263 475.522 144.531C476.375 146.658 476.628 148.975 476.255 151.229L476.172 151.68L462.789 217.658L446.435 259.988C446.288 260.365 446.031 260.689 445.697 260.917C445.364 261.145 444.968 261.267 444.563 261.268C444.411 261.268 444.259 261.251 444.111 261.216H444.11L430.719 258.064H430.72C430.21 257.942 429.769 257.626 429.489 257.184C429.21 256.741 429.113 256.208 429.221 255.696L447.802 169.639L447.805 169.627L447.807 169.615L451.554 147.135C451.901 145.052 452.769 143.091 454.078 141.434C455.387 139.777 457.093 138.477 459.039 137.657Z" fill="#8EA7ED" stroke="black"/>
<path d="M55.988 270.445L33.6381 266.319C33.0022 266.202 32.3991 265.949 31.8698 265.577C31.3405 265.206 30.8975 264.724 30.5709 264.166C30.2444 263.608 30.042 262.986 29.9775 262.343C29.913 261.699 29.988 261.049 30.1973 260.438L37.5318 238.999C38.1504 235.748 40.0329 232.876 42.7665 231.011C45.5 229.146 48.8614 228.442 52.1136 229.052C55.3658 229.663 58.2432 231.538 60.1149 234.266C61.9865 236.995 62.6996 240.355 62.0977 243.608L61.302 266.18C61.2791 266.826 61.1171 267.46 60.8271 268.038C60.5371 268.616 60.126 269.125 59.6217 269.529C59.1174 269.934 58.5317 270.225 57.9047 270.383C57.2776 270.542 56.6239 270.563 55.988 270.445V270.445Z" fill="#3F3D56"/>
<path d="M142.616 204.781C144.629 204.516 146.675 204.869 148.481 205.794C150.288 206.719 151.771 208.173 152.731 209.962C153.692 211.75 154.085 213.788 153.859 215.806C153.633 217.823 152.799 219.725 151.466 221.256C150.133 222.787 148.365 223.877 146.398 224.379C144.431 224.881 142.358 224.772 140.454 224.067L140.191 223.971L139.971 224.145L95.6748 259.09C94.4006 260.095 92.8344 260.66 91.2119 260.699C89.5894 260.739 87.9974 260.252 86.6758 259.31L69.6455 247.172L80.1973 233.358L90.2588 239.15L90.5088 239.295L90.7578 239.15L133.716 214.368L133.947 214.235L133.965 213.969C134 213.443 134.075 212.92 134.192 212.406L134.191 212.405C134.655 210.43 135.711 208.644 137.215 207.282C138.72 205.92 140.604 205.047 142.616 204.781Z" fill="white" stroke="black"/>
<path d="M32.2168 148.306C45.5053 148.306 56.2783 159.079 56.2783 172.367C56.2781 185.656 45.5052 196.428 32.2168 196.428C18.9286 196.427 8.15651 185.655 8.15625 172.367C8.15625 159.079 18.9285 148.306 32.2168 148.306Z" fill="white" stroke="black"/>
<path d="M67.2188 523.537H55.9014L55.8994 477.249H72.9277L67.2188 523.537Z" fill="white" stroke="black"/>
<path d="M76.4189 520.533C78.3739 520.533 80.3101 520.918 82.1162 521.666C83.9223 522.414 85.563 523.511 86.9453 524.894C88.3276 526.276 89.4248 527.917 90.1729 529.723C90.9209 531.529 91.3057 533.465 91.3057 535.42H52.7744V520.533H76.4189Z" fill="#26272B" stroke="#26272B"/>
<path d="M25.2188 523.537H13.9014L13.8994 477.249H30.9277L25.2188 523.537Z" fill="white" stroke="black"/>
<path d="M34.4189 520.533C36.3739 520.533 38.3101 520.918 40.1162 521.666C41.9223 522.414 43.563 523.511 44.9453 524.894C46.3276 526.276 47.4248 527.917 48.1729 529.723C48.9209 531.529 49.3057 533.465 49.3057 535.42H10.7744V520.533H34.4189Z" fill="#26272B" stroke="#26272B"/>
<path d="M72.8862 346.934L74.5405 505.804C74.5274 506.367 74.3956 506.921 74.1538 507.43C73.912 507.938 73.5655 508.39 73.1372 508.756L73.1353 508.757C72.7169 509.117 72.2275 509.386 71.6987 509.545C71.17 509.704 70.6136 509.75 70.0659 509.68L70.0337 509.676H70.0015L55.6421 509.715C54.7454 509.585 53.9184 509.157 53.2974 508.496C52.6701 507.829 52.2909 506.967 52.2222 506.054L52.2212 506.04L52.2192 506.026L39.7134 409.272C39.6942 409.06 39.6082 408.86 39.4673 408.702L39.3989 408.633L39.3247 408.57C39.1537 408.441 38.9446 408.371 38.729 408.37C38.6304 408.367 38.5319 408.378 38.437 408.404L38.3423 408.436C38.25 408.471 38.1636 408.521 38.0864 408.582L38.0132 408.647C37.9422 408.717 37.8822 408.797 37.8354 408.884L37.7935 408.973C37.7462 409.087 37.7218 409.209 37.7202 409.333H37.7192L34.1255 504.683V504.684C34.0897 505.718 33.6525 506.699 32.9067 507.417C32.1611 508.135 31.1656 508.535 30.1304 508.532H15.2759C14.2307 508.538 13.2249 508.132 12.4771 507.402C11.7292 506.672 11.2991 505.677 11.2798 504.632V504.629L7.43701 346.28L72.8862 346.934Z" fill="#E7E7E7" stroke="black"/>
<path d="M31.4175 197.838C27.721 197.917 24.0494 197.214 20.644 195.774C17.2387 194.334 14.1766 192.189 11.6591 189.481C9.14165 186.773 7.22571 183.563 6.03721 180.062C4.84871 176.561 4.41457 172.848 4.76332 169.167C5.11206 165.486 6.2358 161.921 8.06068 158.705C9.88556 155.489 12.3703 152.696 15.3515 150.509C18.3328 148.322 21.7431 146.791 25.3583 146.016C28.9736 145.241 32.7119 145.24 36.3277 146.012C41.7289 142.733 48.0086 140.526 54.3025 141.087C60.5964 141.648 66.8208 145.385 69.1744 151.249C71.528 157.113 68.9995 164.843 63.1473 167.227C59.3955 168.754 55.1586 168.014 51.1548 167.397C47.1509 166.781 42.7831 166.379 39.2984 168.445C35.8138 170.511 34.2474 176.051 37.3682 178.633C39.0225 180.057 40.2038 181.951 40.7548 184.062C41.3058 186.174 41.2003 188.404 40.4524 190.454C38.8839 194.51 34.603 197.769 31.4175 197.838Z" fill="#26272B"/>
<path d="M58.8428 220.187C61.9931 219.785 65.1742 220.649 67.6885 222.589L67.7178 222.611L67.75 222.63L87.4629 233.652C87.9645 233.933 88.4001 234.319 88.7393 234.783C89.0783 235.247 89.3136 235.779 89.4287 236.342C89.5438 236.905 89.5359 237.486 89.4062 238.046C89.2765 238.606 89.0279 239.132 88.6768 239.587L74.793 257.581C74.4418 258.036 73.996 258.41 73.4873 258.678C72.9787 258.945 72.4184 259.099 71.8447 259.131C71.2709 259.162 70.697 259.07 70.1621 258.859C69.6273 258.649 69.1438 258.326 68.7451 257.912L53.0273 241.591L53.0029 241.565L52.9746 241.543C50.4716 239.588 48.8455 236.721 48.4531 233.569C48.0608 230.418 48.9344 227.239 50.8818 224.73C52.8293 222.222 55.6923 220.588 58.8428 220.187Z" fill="#D8F2F0" stroke="black"/>
<path d="M49.0781 204.318H49.0811C49.4816 204.305 49.8771 204.413 50.2148 204.629C50.5524 204.845 50.8169 205.158 50.9727 205.527L50.9736 205.529L53.3721 211.126L53.4375 211.28L53.584 211.363L54.4355 211.849C62.4504 216.417 68.9397 223.248 73.0928 231.486C77.2459 239.724 78.8786 249.004 77.7852 258.165H77.7842L75.9414 273.729L75.9385 273.755L75.9375 273.779L74.6279 346.517C74.6127 347.227 74.4108 347.92 74.042 348.527C73.673 349.135 73.1499 349.634 72.5264 349.975H72.5254C63.2533 355.052 52.9659 356.796 43.2031 356.796C26.7935 356.796 11.9436 351.865 6.11816 349.652H6.11914C5.45856 349.399 4.87696 348.976 4.43359 348.425C3.99528 347.88 3.70799 347.23 3.59961 346.539L2.9375 259.276V259.24L2.93164 259.205C1.45923 249.459 -0.127687 239.912 0.75293 231.567C1.62918 223.265 4.9445 216.201 13.2744 211.374L13.4375 211.279L13.498 211.1L14.9941 206.607L14.9951 206.608C15.1258 206.22 15.3719 205.879 15.7012 205.635C16.0305 205.39 16.4269 205.252 16.8369 205.239L16.8359 205.238L49.0781 204.318Z" fill="#D8F2F0" stroke="black"/>
<g clip-path="url(#clip0_1114_2432)">
<path d="M160.599 36.0408H197.401C228.396 36.0408 253.523 61.0945 253.523 91.9999C253.523 122.905 228.396 147.959 197.401 147.959H105.303C105.084 147.959 104.874 147.872 104.719 147.718C104.564 147.564 104.478 147.354 104.478 147.136V91.9999C104.478 61.0945 129.604 36.0408 160.599 36.0408Z" fill="#D4F0EF" fill-opacity="0.91"/>
</g>
<g opacity="0.8" clip-path="url(#clip1_1114_2432)">
<path d="M370.401 0.0407715H333.599C302.604 0.0407715 277.477 25.0945 277.477 55.9999C277.477 86.9053 302.604 111.959 333.599 111.959H425.697C425.916 111.959 426.126 111.872 426.281 111.718C426.435 111.564 426.522 111.354 426.522 111.136V55.9999C426.522 25.0945 401.396 0.0407715 370.401 0.0407715Z" fill="#8EA7ED"/>
</g>
<defs>
<clipPath id="clip0_1114_2432">
<rect width="150" height="112" fill="white" transform="translate(104 36)"/>
</clipPath>
<clipPath id="clip1_1114_2432">
<rect width="150" height="112" fill="white" transform="matrix(-1 0 0 1 427 0)"/>
</clipPath>
</defs>
</svg>
