<svg width="465" height="559" viewBox="0 0 465 559" fill="none" xmlns="http://www.w3.org/2000/svg">
<path d="M408.576 292.632L430.958 288.5C431.595 288.383 432.199 288.129 432.729 287.757C433.259 287.385 433.703 286.903 434.03 286.344C434.357 285.785 434.559 285.162 434.624 284.518C434.689 283.874 434.614 283.223 434.404 282.61L427.059 261.14C426.439 257.885 424.554 255.008 421.817 253.141C419.079 251.274 415.713 250.568 412.456 251.179C409.199 251.791 406.318 253.668 404.443 256.401C402.569 259.134 401.855 262.498 402.457 265.757L403.254 288.361C403.277 289.008 403.44 289.642 403.73 290.221C404.02 290.8 404.432 291.31 404.937 291.715C405.442 292.12 406.029 292.412 406.657 292.57C407.284 292.729 407.939 292.75 408.576 292.632V292.632Z" fill="#3F3D56"/>
<path d="M321.822 226.872C319.807 226.606 317.758 226.96 315.948 227.887C314.139 228.814 312.654 230.27 311.691 232.061C310.729 233.852 310.336 235.894 310.562 237.914C310.789 239.935 311.625 241.839 312.96 243.372C314.295 244.906 316.065 245.996 318.034 246.499C320.004 247.002 322.081 246.894 323.987 246.189L324.251 246.091L324.471 246.265L368.831 281.261C370.107 282.268 371.676 282.834 373.301 282.873C374.926 282.913 376.52 282.424 377.844 281.481L394.898 269.325L384.332 255.491L374.255 261.291L374.006 261.436L373.756 261.291L330.736 236.474L330.505 236.34L330.487 236.074C330.452 235.547 330.376 235.024 330.259 234.509L330.26 234.508C329.795 232.53 328.738 230.741 327.232 229.377C325.725 228.013 323.838 227.139 321.822 226.872Z" fill="white" stroke="black"/>
<path d="M432.381 170.314C419.073 170.315 408.284 181.103 408.284 194.411C408.284 207.719 419.073 218.508 432.381 218.508C445.689 218.508 456.477 207.719 456.478 194.411C456.478 181.103 445.689 170.314 432.381 170.314Z" fill="white" stroke="black"/>
<path d="M397.328 546.091H408.663L408.665 499.735H391.61L397.328 546.091Z" fill="white" stroke="black"/>
<path d="M388.115 543.08C386.157 543.08 384.219 543.466 382.41 544.215C380.601 544.964 378.958 546.062 377.573 547.447C376.189 548.831 375.091 550.475 374.342 552.283C373.593 554.092 373.207 556.031 373.207 557.989V557.99H411.795V543.08H388.115Z" fill="#26272B" stroke="#26272B"/>
<path d="M439.389 546.091H450.724L450.726 499.735H433.671L439.389 546.091Z" fill="white" stroke="black"/>
<path d="M430.176 543.08C428.218 543.08 426.279 543.466 424.471 544.215C422.662 544.964 421.018 546.062 419.634 547.447C418.249 548.831 417.152 550.475 416.402 552.283C415.653 554.092 415.268 556.031 415.268 557.989V557.99H453.855V543.08H430.176Z" fill="#26272B" stroke="#26272B"/>
<path d="M391.652 369.23L389.996 528.347C390.011 528.905 390.143 529.454 390.383 529.959C390.625 530.468 390.972 530.921 391.401 531.287L391.402 531.289C391.821 531.65 392.312 531.919 392.842 532.078C393.371 532.237 393.929 532.283 394.478 532.213L394.51 532.209H394.542L408.922 532.248C409.82 532.118 410.648 531.688 411.271 531.027C411.899 530.359 412.279 529.495 412.348 528.581L412.349 528.567L412.351 528.553L424.874 431.66C424.893 431.447 424.98 431.247 425.121 431.089L425.188 431.019L425.264 430.958C425.443 430.822 425.665 430.75 425.892 430.756V430.757C426.013 430.757 426.133 430.778 426.246 430.822C426.339 430.858 426.425 430.908 426.502 430.969L426.576 431.035C426.647 431.104 426.707 431.183 426.754 431.27L426.796 431.36C426.843 431.474 426.868 431.597 426.869 431.72L430.469 527.208V527.209C430.505 528.245 430.942 529.227 431.689 529.947C432.436 530.666 433.434 531.066 434.471 531.063H449.347C450.393 531.069 451.4 530.662 452.149 529.931C452.898 529.2 453.329 528.203 453.349 527.156V527.153L457.197 368.576L391.652 369.23Z" fill="#E7E7E7" stroke="black"/>
<path d="M433.182 219.92C436.883 220 440.56 219.295 443.971 217.853C447.381 216.411 450.447 214.263 452.968 211.551C455.49 208.839 457.408 205.625 458.598 202.118C459.789 198.612 460.223 194.894 459.874 191.208C459.525 187.521 458.4 183.951 456.572 180.73C454.745 177.51 452.256 174.713 449.271 172.523C446.285 170.333 442.87 168.799 439.249 168.023C435.629 167.247 431.885 167.246 428.264 168.019C422.855 164.735 416.567 162.525 410.264 163.087C403.961 163.649 397.727 167.391 395.37 173.264C393.013 179.137 395.545 186.878 401.406 189.264C405.163 190.795 409.406 190.053 413.416 189.435C417.425 188.818 421.8 188.416 425.289 190.485C428.779 192.554 430.348 198.101 427.222 200.688C425.566 202.113 424.383 204.01 423.831 206.124C423.279 208.239 423.385 210.472 424.134 212.525C425.704 216.587 429.991 219.851 433.182 219.92Z" fill="#26272B"/>
<path d="M415.495 226.408H415.492C415.091 226.394 414.696 226.503 414.357 226.719C414.019 226.935 413.754 227.249 413.598 227.619L413.597 227.621L411.195 233.226L411.129 233.381L410.983 233.464L410.131 233.95C402.104 238.526 395.604 245.366 391.445 253.616C387.286 261.866 385.652 271.159 386.747 280.333V280.334L388.593 295.921L388.596 295.945L388.597 295.971L389.908 368.812C389.923 369.524 390.126 370.219 390.495 370.827C390.819 371.359 391.26 371.808 391.784 372.141L392.014 372.276C401.299 377.361 411.602 379.107 421.379 379.107C437.812 379.107 452.685 374.169 458.519 371.953C459.18 371.7 459.761 371.275 460.205 370.724C460.643 370.179 460.931 369.53 461.04 368.84L461.703 281.446L461.704 281.41L461.709 281.375L462.263 277.726C463.543 269.244 464.663 261.009 463.892 253.697C463.014 245.382 459.694 238.309 451.352 233.474L451.188 233.38L451.128 233.2L449.628 228.7L449.629 228.699C449.498 228.31 449.25 227.971 448.921 227.726C448.591 227.482 448.195 227.343 447.784 227.33L415.495 226.408Z" fill="#1C4CDB" stroke="black"/>
<path d="M405.717 242.3C402.562 241.898 399.376 242.763 396.857 244.706L396.828 244.729L396.796 244.747L377.055 255.785C376.552 256.066 376.116 256.453 375.776 256.918C375.437 257.383 375.201 257.916 375.086 258.479C374.971 259.043 374.978 259.626 375.108 260.187C375.237 260.739 375.48 261.259 375.824 261.71L375.839 261.729L389.743 279.749C390.095 280.205 390.54 280.58 391.05 280.848C391.559 281.116 392.121 281.27 392.696 281.302C393.271 281.333 393.846 281.241 394.382 281.03C394.851 280.846 395.28 280.575 395.647 280.232L395.801 280.081L411.541 263.736L411.565 263.711L411.593 263.689L412.053 263.312C414.299 261.371 415.754 258.662 416.122 255.703C416.515 252.547 415.64 249.363 413.689 246.851C411.739 244.338 408.872 242.702 405.717 242.3Z" fill="#1C4CDB" stroke="black"/>
<path d="M214.372 103.106L202.369 143.858L183.894 202.745L183.08 202.471L183.537 203.509C184.373 205.408 184.643 207.514 184.313 209.567C183.984 211.621 183.07 213.53 181.686 215.061C180.301 216.591 178.506 217.674 176.523 218.18C174.541 218.685 172.456 218.59 170.526 217.906C168.596 217.222 166.903 215.979 165.659 214.328C164.415 212.678 163.674 210.692 163.527 208.617C163.381 206.542 163.835 204.469 164.835 202.654C165.835 200.84 167.335 199.363 169.149 198.406L169.348 198.302L169.401 198.084L183.92 139.141L183.923 139.13L183.925 139.12L192.313 97.6113L214.372 103.106Z" fill="white" stroke="black"/>
<path d="M296.567 144.065V144.066L296.867 205.887L295.997 205.88L296.759 206.725C298.152 208.269 299.062 210.187 299.377 212.242C299.692 214.297 299.398 216.4 298.53 218.29C297.663 220.18 296.26 221.775 294.495 222.878C292.731 223.981 290.682 224.544 288.601 224.497C286.519 224.45 284.497 223.796 282.784 222.615C281.071 221.434 279.742 219.777 278.96 217.851C278.178 215.924 277.979 213.809 278.386 211.771C278.793 209.732 279.788 207.856 281.25 206.376L281.408 206.216L281.393 205.991L277.25 145.36L277.248 145.339L272.554 103.213L295.605 101.537L296.567 144.065Z" fill="white" stroke="black"/>
<path d="M193.499 344.5L193.497 400.5H179.223L174.543 344.5H193.499Z" fill="white" stroke="black"/>
<path d="M197.999 415L150 414.998V414.4C150 411.984 150.483 409.591 151.422 407.359C152.361 405.126 153.737 403.098 155.472 401.389C157.207 399.681 159.266 398.325 161.533 397.4C163.8 396.476 166.229 396 168.683 396H168.684L198 396.001L197.999 415Z" fill="#2F2E41"/>
<path d="M273.499 344.5L273.497 400.5H259.532L252.565 344.5H273.499Z" fill="white" stroke="black"/>
<path d="M276.999 415L230 414.998V414.4C230 411.984 230.473 409.591 231.392 407.359C232.312 405.126 233.659 403.098 235.358 401.389C237.057 399.681 239.073 398.325 241.293 397.4C243.512 396.476 245.891 396 248.294 396H248.295L277 396.001L276.999 415Z" fill="#2F2E41"/>
<path d="M271.221 383H271.221C271.111 383 271.001 382.996 270.891 382.99L258.183 382.282C256.825 382.207 255.536 381.656 254.544 380.723C253.551 379.791 252.918 378.538 252.757 377.184L237.191 238.285C237.154 237.991 237.027 237.716 236.828 237.497C236.629 237.278 236.367 237.126 236.078 237.062C235.79 236.997 235.488 237.024 235.215 237.138C234.942 237.251 234.711 237.447 234.553 237.697L214.72 269.166C211.192 274.746 208.908 281.023 208.024 287.568L197.947 370.995C197.755 372.385 197.069 373.659 196.015 374.583C194.96 375.507 193.609 376.019 192.209 376.025H178.108C176.621 376.026 175.191 375.454 174.114 374.426C173.037 373.398 172.396 371.995 172.325 370.506L169.104 294.909C168.582 284.375 170.026 273.835 173.362 263.831L203.719 185.974L203.895 185.924L276.967 165L277 377.354C276.959 378.864 276.333 380.298 275.254 381.352C274.175 382.406 272.728 382.997 271.221 383Z" fill="#26272B"/>
<path d="M259.978 63.5L289.459 79.9482L274.715 188.487L203.144 186.564L193.527 77.1523L221.629 63.5H259.978Z" fill="#8EA7ED" stroke="black"/>
<path d="M307.328 121.261L269.671 134.239L280.275 83.8779L289.877 80.6211L307.328 121.261Z" fill="#8EA7ED" stroke="black"/>
<path d="M206.5 82.1865V132.175L170.704 113.504L192.535 77.5986L206.5 82.1865Z" fill="#8EA7ED" stroke="black"/>
<path d="M242.5 9.5C254.65 9.5 264.5 19.3497 264.5 31.5C264.5 43.6503 254.65 53.5 242.5 53.5C230.35 53.5 220.5 43.6503 220.5 31.5C220.5 19.3497 230.35 9.5 242.5 9.5Z" fill="white" stroke="black"/>
<path d="M249.105 0.195991C245.281 -0.4327 241.476 0.641272 237.671 0.765772C235.8 0.826987 233.92 0.594071 232.057 0.787203C230.195 0.980336 228.268 1.68418 227.166 3.20233C226.395 4.26428 226.04 5.69067 224.94 6.4029C224.082 6.95828 222.951 6.94191 222.087 7.48765C220.422 8.5387 220.487 11.0726 219.148 12.518C218.511 13.2054 217.575 13.6214 217.123 14.4427C216.875 14.9834 216.745 15.571 216.742 16.1662L216.093 24.8019C216.003 25.0503 215.978 25.3176 216.019 25.5786C216.061 25.8396 216.167 26.0858 216.329 26.2942C216.491 26.5026 216.703 26.6664 216.946 26.7702C217.188 26.8741 217.453 26.9146 217.715 26.8879C219.269 27.1005 221.161 27.1763 222.064 25.8896C223.133 24.3678 222.323 21.5419 224.084 20.9541C225.644 20.4333 226.903 22.6285 228.546 22.6743C229.785 22.7088 230.671 21.5496 231.472 20.6016C232.274 19.6536 233.6 18.754 234.659 19.4001C235.542 19.9393 235.613 21.2106 236.279 22.004C237.286 23.2023 239.203 22.9031 240.626 22.2566C242.049 21.6101 243.523 20.698 245.053 21.0102C247.192 21.4462 248.295 24.0468 250.387 24.6708C253.383 25.5644 256.606 21.9785 259.413 23.3577C260.728 24.0041 261.356 25.5415 261.58 26.9934C261.804 28.4453 261.741 29.9525 262.201 31.3476C262.66 32.7427 263.86 34.0582 265.324 33.998C265.22 32.9923 265.464 31.9812 266.017 31.1353C266.451 30.4753 267.06 29.9397 267.454 29.2548C268.816 26.8856 267.161 23.9016 267.489 21.1866C267.572 20.5023 267.783 19.8336 267.802 19.1445C267.855 17.2873 266.545 15.7058 265.311 14.3201L263.861 12.6918C262.575 11.1593 261.156 9.74526 259.619 8.46667C258.401 7.62866 257.226 6.72759 256.101 5.7671C253.842 3.58345 252.441 0.744566 249.105 0.195991Z" fill="#26272B"/>
<path d="M10.9111 379.592L10.8516 379.942L10.5 380.001C9.19071 380.218 7.94502 380.72 6.85059 381.471C5.75605 382.221 4.83914 383.203 4.16504 384.347C3.49097 385.49 3.07529 386.767 2.94824 388.089C2.82123 389.41 2.98586 390.743 3.42969 391.994L3.41406 392L3.43066 391.997C4.16462 394.108 5.64759 395.878 7.59863 396.97C9.54973 398.061 11.8342 398.398 14.0176 397.918C16.2007 397.438 18.1319 396.174 19.4453 394.365C20.7588 392.556 21.3638 390.328 21.1445 388.103L21.1357 388.017L21.1562 387.934L28.5205 358.207L16.499 346.951L10.9111 379.592Z" fill="white" stroke="black"/>
<path d="M57.873 200.307C45.2266 200.307 34.9746 210.559 34.9746 223.205C34.9746 235.852 45.2266 246.104 57.873 246.104C70.5195 246.104 80.7715 235.852 80.7715 223.205C80.7715 210.559 70.5195 200.307 57.873 200.307Z" fill="white" stroke="black"/>
<path d="M114.54 500.455L127.103 542.676L137.395 539.613L130.041 495.844L114.54 500.455Z" fill="white" stroke="black"/>
<path d="M150.514 533.901C148.664 533.709 146.795 533.883 145.013 534.413V534.412L145.012 534.413L123.446 540.829L127.477 554.377L162.613 543.924C162.082 542.15 161.209 540.498 160.042 539.06C158.87 537.617 157.426 536.418 155.791 535.533C154.156 534.648 152.363 534.093 150.514 533.901Z" fill="#26272B" stroke="black"/>
<path d="M10.2773 498.174L4.68945 542.224H15.3594L20.793 498.174H10.2773Z" fill="white" stroke="black"/>
<path d="M24.1436 539.411H1.64258V553.546L38.3018 553.545C38.2986 551.694 37.932 549.862 37.2236 548.152C36.5121 546.434 35.4699 544.873 34.1553 543.558C32.8406 542.243 31.2793 541.2 29.5615 540.489C27.8439 539.777 26.0027 539.411 24.1436 539.411Z" fill="#26272B" stroke="black"/>
<path d="M48.207 336.242C26.8613 379.133 13.3136 449.982 0.625 524.046L0.621094 524.066L0.616211 524.084C0.478156 524.628 0.463077 525.196 0.571289 525.746C0.679522 526.297 0.908556 526.817 1.24219 527.268C1.57589 527.719 2.00622 528.09 2.50098 528.355C2.99572 528.619 3.54307 528.771 4.10352 528.798L17.2793 529.438H17.2812C18.0684 529.479 18.8485 529.271 19.5117 528.845C20.175 528.419 20.6882 527.796 20.9785 527.063L20.9795 527.062L71.46 400.865C71.5979 400.494 71.8495 400.176 72.1797 399.958C72.4725 399.765 72.8133 399.659 73.1621 399.651L73.2881 399.652C73.6844 399.655 74.0702 399.782 74.3906 400.016C74.7093 400.248 74.9477 400.574 75.0732 400.948L118.882 527.01C119.141 527.753 119.625 528.397 120.266 528.853C120.907 529.308 121.674 529.554 122.46 529.554H134.187C134.742 529.554 135.29 529.432 135.793 529.197C136.296 528.961 136.74 528.617 137.096 528.191C137.451 527.764 137.709 527.264 137.85 526.727C137.99 526.19 138.011 525.628 137.911 525.082L137.84 524.696L138.199 524.535C138.22 524.526 138.352 524.431 138.488 523.989C138.615 523.579 138.71 522.986 138.766 522.203C138.877 520.643 138.825 518.428 138.624 515.64C138.222 510.069 137.227 502.284 135.792 493.032C132.922 474.533 128.295 450.21 123.136 426.105C117.977 401.999 112.288 378.12 107.296 360.506C104.799 351.696 102.481 344.468 100.495 339.566C99.5 337.11 98.5982 335.265 97.8125 334.1C97.4177 333.514 97.0745 333.135 96.79 332.93C96.5109 332.729 96.3641 332.744 96.2852 332.775L95.917 332.92L95.6914 332.595L95.543 332.38L48.207 336.242Z" fill="#F2F2F2" stroke="black"/>
<path d="M12.4366 249.971C28.5258 257.331 50.3557 256.014 75.3125 249.971C71.859 240.511 69.1677 231.374 72.2203 224.667C73.453 222.135 74.1489 219.376 74.2642 216.562C74.3796 213.748 73.9119 210.941 72.8905 208.316C70.4979 202.594 66.4667 197.707 61.3038 194.27C56.1409 190.833 50.0768 188.999 43.8745 189C35.5367 189 27.5403 192.312 21.6445 198.208C15.7488 204.104 12.4366 212.1 12.4366 220.438V249.971Z" fill="#26272B"/>
<path d="M66.7391 191.139H46.7331V215.741H88.6504V213.05C88.6504 207.239 86.3419 201.666 82.2327 197.557C78.1236 193.447 72.5503 191.139 66.7391 191.139Z" fill="#26272B"/>
<path d="M100.489 382.62L100.601 382.958L100.317 383.174C99.2624 383.98 98.3973 385.008 97.7822 386.184C97.1673 387.36 96.8174 388.657 96.7578 389.983C96.6982 391.309 96.9305 392.632 97.4375 393.859C97.9445 395.085 98.714 396.186 99.6924 397.083L99.6943 397.085C101.332 398.607 103.472 399.474 105.707 399.524C107.942 399.573 110.118 398.802 111.821 397.355C113.525 395.908 114.638 393.886 114.951 391.672C115.264 389.459 114.754 387.207 113.518 385.344L113.47 385.273L113.449 385.189L106.023 355.478L90.1299 351.168L100.489 382.62Z" fill="white" stroke="black"/>
<path d="M49.4678 261.495C47.6057 260.744 45.5832 260.477 43.5898 260.717C41.283 260.995 39.1078 261.941 37.333 263.441C35.5581 264.941 34.261 266.927 33.6025 269.156L15.4111 330.648L10.2754 373.58C10.2317 373.957 10.303 374.339 10.4795 374.675C10.6341 374.97 10.8627 375.219 11.1426 375.396L11.2656 375.467C11.3923 375.534 11.5264 375.586 11.665 375.623H11.666L24.3438 378.95C24.8205 379.072 25.3265 379.005 25.7539 378.76C26.1282 378.546 26.4159 378.211 26.5732 377.814L26.6328 377.64L49.415 296.922L49.418 296.911L49.4219 296.9L56.3047 276.307C56.9411 274.403 57.0856 272.369 56.7246 270.394C56.3636 268.419 55.5092 266.567 54.2402 265.011C52.9714 263.455 51.3297 262.245 49.4678 261.495Z" fill="#C3F0A1" stroke="black"/>
<path d="M62.5986 254.131C57.68 253.484 52.6772 254.112 48.0713 255.955C43.4655 257.799 39.411 260.796 36.2969 264.658L36.2939 264.661C33.1052 268.546 30.9682 273.186 30.0898 278.134C29.2115 283.083 29.6211 288.175 31.2783 292.92V292.921L47.2266 339.022L97.6729 335.214L88.8105 278.848L88.8096 278.847C87.8443 272.602 84.8858 266.837 80.375 262.411C75.8641 257.986 70.0427 255.138 63.7803 254.292L63.7783 254.291C63.3878 254.237 62.9944 254.183 62.5986 254.131Z" fill="#C3F0A1" stroke="black"/>
<path d="M85.0703 261.099C83.2202 260.319 81.2028 260.02 79.2061 260.229C77.3342 260.425 75.5372 261.063 73.9619 262.087L73.6494 262.297C71.7414 263.623 70.2636 265.479 69.3984 267.635C68.5333 269.792 68.3186 272.155 68.7812 274.432L81.5283 337.281L97.1104 377.611C97.2487 377.965 97.4901 378.269 97.8037 378.484C98.1177 378.699 98.4896 378.813 98.8701 378.813C99.0131 378.813 99.1557 378.797 99.2949 378.764H99.2959L112.054 375.762H112.053C112.532 375.648 112.948 375.351 113.211 374.934C113.474 374.518 113.566 374.014 113.464 373.532L95.7617 291.55L95.7578 291.527L92.1875 270.111C91.8575 268.131 91.0324 266.266 89.7881 264.69C88.5436 263.114 86.9204 261.879 85.0703 261.099Z" fill="#C3F0A1" stroke="black"/>
</svg>
